<?xml version="1.0" encoding="UTF-8" standalone="no"?>
<svg
   xmlns:dc="http://purl.org/dc/elements/1.1/"
   xmlns:cc="http://creativecommons.org/ns#"
   xmlns:rdf="http://www.w3.org/1999/02/22-rdf-syntax-ns#"
   xmlns:svg="http://www.w3.org/2000/svg"
   xmlns="http://www.w3.org/2000/svg"
   xmlns:sodipodi="http://sodipodi.sourceforge.net/DTD/sodipodi-0.dtd"
   xmlns:inkscape="http://www.inkscape.org/namespaces/inkscape"
   aria-hidden="true"
   focusable="false"
   data-prefix="fas"
   data-icon="images"
   class="svg-inline--fa fa-images fa-w-18"
   role="img"
   viewBox="0 0 192 192"
   version="1.1"
   id="svg3763"
   sodipodi:docname="images-solid.svg"
   width="192"
   height="192"
   inkscape:version="0.92.4 (5da689c313, 2019-01-14)">
  <metadata
     id="metadata3769">
    <rdf:RDF>
      <cc:Work
         rdf:about="">
        <dc:format>image/svg+xml</dc:format>
        <dc:type
           rdf:resource="http://purl.org/dc/dcmitype/StillImage" />
        <dc:title></dc:title>
      </cc:Work>
    </rdf:RDF>
  </metadata>
  <defs
     id="defs3767" />
  <sodipodi:namedview
     pagecolor="#ffffff"
     bordercolor="#666666"
     borderopacity="1"
     objecttolerance="10"
     gridtolerance="10"
     guidetolerance="10"
     inkscape:pageopacity="0"
     inkscape:pageshadow="2"
     inkscape:window-width="1358"
     inkscape:window-height="745"
     id="namedview3765"
     showgrid="false"
     inkscape:snap-object-midpoints="false"
     inkscape:zoom="2.2070312"
     inkscape:cx="138.07797"
     inkscape:cy="100.54828"
     inkscape:window-x="0"
     inkscape:window-y="15"
     inkscape:window-maximized="0"
     inkscape:current-layer="svg3763" />
  <path
     d="M 160,149.66667 V 155 c 0,8.83667 -7.16333,16 -16,16 H 16 C 7.1633333,171 0,163.83667 0,155 V 69.66667 c 0,-8.83667 7.1633333,-16 16,-16 h 5.333333 V 123 c 0,14.704 11.962667,26.66667 26.666667,26.66667 z M 192,123 V 37.66667 c 0,-8.83667 -7.16333,-16 -16,-16 H 48 c -8.836667,0 -16,7.16333 -16,16 V 123 c 0,8.83667 7.163333,16 16,16 h 128 c 8.83667,0 16,-7.16333 16,-16 z M 85.333333,53.66667 c 0,8.83666 -7.163333,16 -16,16 -8.836666,0 -16,-7.16334 -16,-16 0,-8.83667 7.163334,-16 16,-16 8.836667,0 16,7.16333 16,16 z m -32,48 18.505,-18.505 c 1.562,-1.562 4.094667,-1.562 5.657,0 L 90.666667,96.33333 135.83833,51.16167 c 1.562,-1.562 4.09467,-1.562 5.657,0 l 29.17134,29.17166 v 37.33334 H 53.333333 Z"
     id="path3761"
     inkscape:connector-curvature="0"
     style="fill:#78909c;stroke-width:0.33333334;fill-opacity:1" />
</svg>
